<mxfile host="app.diagrams.net" agent="Mozilla/5.0 (Windows NT 10.0; Win64; x64) AppleWebKit/537.36 (KHTML, like Gecko) Chrome/127.0.0.0 Safari/537.36" version="24.7.6">
  <diagram name="Page-1" id="b520641d-4fe3-3701-9064-5fc419738815">
    <mxGraphModel dx="2214" dy="1260" grid="1" gridSize="10" guides="1" tooltips="1" connect="1" arrows="1" fold="1" page="1" pageScale="1" pageWidth="1100" pageHeight="850" background="none" math="0" shadow="0">
      <root>
        <mxCell id="0" />
        <mxCell id="1" parent="0" />
        <mxCell id="46TyBXQhw3_iuNuW0S0L-19" style="edgeStyle=orthogonalEdgeStyle;rounded=0;orthogonalLoop=1;jettySize=auto;html=1;exitX=0.5;exitY=1;exitDx=0;exitDy=0;" edge="1" parent="1" source="46TyBXQhw3_iuNuW0S0L-1">
          <mxGeometry relative="1" as="geometry">
            <mxPoint x="130" y="410" as="targetPoint" />
          </mxGeometry>
        </mxCell>
        <mxCell id="46TyBXQhw3_iuNuW0S0L-23" style="edgeStyle=orthogonalEdgeStyle;rounded=0;orthogonalLoop=1;jettySize=auto;html=1;exitX=1;exitY=0.5;exitDx=0;exitDy=0;entryX=0;entryY=0.5;entryDx=0;entryDy=0;" edge="1" parent="1" source="46TyBXQhw3_iuNuW0S0L-1" target="46TyBXQhw3_iuNuW0S0L-6">
          <mxGeometry relative="1" as="geometry" />
        </mxCell>
        <mxCell id="46TyBXQhw3_iuNuW0S0L-1" value="Здравствуйте! Меня зовут [Имя], я представляю банк Тинькофф. Удобно ли вам сейчас говорить?" style="rounded=1;whiteSpace=wrap;html=1;fillColor=#FFF2CC;strokeColor=#d6b656;" vertex="1" parent="1">
          <mxGeometry x="40" y="270" width="180" height="90" as="geometry" />
        </mxCell>
        <mxCell id="46TyBXQhw3_iuNuW0S0L-20" style="edgeStyle=orthogonalEdgeStyle;rounded=0;orthogonalLoop=1;jettySize=auto;html=1;exitX=0.5;exitY=1;exitDx=0;exitDy=0;entryX=0.5;entryY=0;entryDx=0;entryDy=0;" edge="1" parent="1" source="46TyBXQhw3_iuNuW0S0L-5" target="46TyBXQhw3_iuNuW0S0L-9">
          <mxGeometry relative="1" as="geometry" />
        </mxCell>
        <mxCell id="46TyBXQhw3_iuNuW0S0L-5" value="Нет, не удобно.&lt;div&gt;(Негативный ответ)&lt;/div&gt;" style="rounded=1;whiteSpace=wrap;html=1;fillColor=#f8cecc;strokeColor=#b85450;" vertex="1" parent="1">
          <mxGeometry x="80" y="410" width="120" height="60" as="geometry" />
        </mxCell>
        <mxCell id="46TyBXQhw3_iuNuW0S0L-6" value="Да, удобно.&lt;div&gt;(Положительный ответ)&lt;/div&gt;" style="rounded=1;whiteSpace=wrap;html=1;fillColor=#DAE8FC;strokeColor=#6c8ebf;" vertex="1" parent="1">
          <mxGeometry x="260" y="285" width="120" height="60" as="geometry" />
        </mxCell>
        <mxCell id="46TyBXQhw3_iuNuW0S0L-22" style="edgeStyle=orthogonalEdgeStyle;rounded=0;orthogonalLoop=1;jettySize=auto;html=1;exitX=0.5;exitY=1;exitDx=0;exitDy=0;" edge="1" parent="1" source="46TyBXQhw3_iuNuW0S0L-9" target="46TyBXQhw3_iuNuW0S0L-11">
          <mxGeometry relative="1" as="geometry" />
        </mxCell>
        <mxCell id="46TyBXQhw3_iuNuW0S0L-9" value="Я понимаю, что сейчас может быть не самое удобное время. Когда вам будет удобнее перезвонить?" style="rounded=1;whiteSpace=wrap;html=1;fillColor=#FFF2CC;" vertex="1" parent="1">
          <mxGeometry x="65" y="530" width="150" height="90" as="geometry" />
        </mxCell>
        <mxCell id="46TyBXQhw3_iuNuW0S0L-11" value="&#xa;Спасибо! Я обязательно перезвоню вам в указанное время. Хорошего дня!&#xa;&#xa;" style="rounded=1;whiteSpace=wrap;html=1;fillColor=#FFF2CC;" vertex="1" parent="1">
          <mxGeometry x="65" y="670" width="150" height="100" as="geometry" />
        </mxCell>
        <mxCell id="46TyBXQhw3_iuNuW0S0L-35" style="edgeStyle=orthogonalEdgeStyle;rounded=0;orthogonalLoop=1;jettySize=auto;html=1;exitX=1;exitY=0.5;exitDx=0;exitDy=0;" edge="1" parent="1" source="46TyBXQhw3_iuNuW0S0L-13">
          <mxGeometry relative="1" as="geometry">
            <mxPoint x="1120" y="140" as="targetPoint" />
          </mxGeometry>
        </mxCell>
        <mxCell id="46TyBXQhw3_iuNuW0S0L-13" value="Отлично! Рад, что у нас есть возможность узнать о нашей продукции. Я хотел бы рассказать вам о кредитной карте Тинькофф Платинум, которая может стать отличным финансовым инструментом для вас. Она предлагает до 55 дней льготного периода без начисления процентов, а также множество бонусов и кешбэков." style="rounded=1;whiteSpace=wrap;html=1;fillColor=#FFF2CC;" vertex="1" parent="1">
          <mxGeometry x="850" y="70" width="240" height="140" as="geometry" />
        </mxCell>
        <mxCell id="46TyBXQhw3_iuNuW0S0L-25" style="edgeStyle=orthogonalEdgeStyle;rounded=0;orthogonalLoop=1;jettySize=auto;html=1;exitX=1;exitY=0.25;exitDx=0;exitDy=0;" edge="1" parent="1" source="46TyBXQhw3_iuNuW0S0L-18">
          <mxGeometry relative="1" as="geometry">
            <mxPoint x="680" y="160" as="targetPoint" />
          </mxGeometry>
        </mxCell>
        <mxCell id="46TyBXQhw3_iuNuW0S0L-18" value="&#xa;Спасибо! Скажите, как часто вы пользуетесь кредитными картами?&lt;br&gt;Какие условия для вас наиболее важны: льготный период, процентная ставка или кешбэк?&#xa;&#xa;" style="rounded=1;whiteSpace=wrap;html=1;fillColor=#FFF2CC;" vertex="1" parent="1">
          <mxGeometry x="390" y="160" width="200" height="100" as="geometry" />
        </mxCell>
        <mxCell id="46TyBXQhw3_iuNuW0S0L-24" style="edgeStyle=orthogonalEdgeStyle;rounded=0;orthogonalLoop=1;jettySize=auto;html=1;exitX=0.5;exitY=0;exitDx=0;exitDy=0;entryX=-0.005;entryY=0.38;entryDx=0;entryDy=0;entryPerimeter=0;" edge="1" parent="1" source="46TyBXQhw3_iuNuW0S0L-6" target="46TyBXQhw3_iuNuW0S0L-18">
          <mxGeometry relative="1" as="geometry" />
        </mxCell>
        <mxCell id="46TyBXQhw3_iuNuW0S0L-34" style="edgeStyle=orthogonalEdgeStyle;rounded=0;orthogonalLoop=1;jettySize=auto;html=1;exitX=1;exitY=0.5;exitDx=0;exitDy=0;entryX=0;entryY=0.5;entryDx=0;entryDy=0;" edge="1" parent="1" source="46TyBXQhw3_iuNuW0S0L-27" target="46TyBXQhw3_iuNuW0S0L-13">
          <mxGeometry relative="1" as="geometry" />
        </mxCell>
        <mxCell id="46TyBXQhw3_iuNuW0S0L-27" value="Да, конечно.&lt;div&gt;(Положительный ответ)&lt;br&gt;&lt;/div&gt;" style="rounded=1;whiteSpace=wrap;html=1;fillColor=#DAE8FC;" vertex="1" parent="1">
          <mxGeometry x="680" y="130" width="120" height="60" as="geometry" />
        </mxCell>
        <mxCell id="46TyBXQhw3_iuNuW0S0L-30" style="edgeStyle=orthogonalEdgeStyle;rounded=0;orthogonalLoop=1;jettySize=auto;html=1;exitX=1;exitY=0.5;exitDx=0;exitDy=0;entryX=0;entryY=0.5;entryDx=0;entryDy=0;" edge="1" parent="1" source="46TyBXQhw3_iuNuW0S0L-28" target="46TyBXQhw3_iuNuW0S0L-29">
          <mxGeometry relative="1" as="geometry" />
        </mxCell>
        <mxCell id="46TyBXQhw3_iuNuW0S0L-28" value="Нет, спасибо&lt;div&gt;(Негативный ответ))&lt;/div&gt;" style="rounded=1;whiteSpace=wrap;html=1;fillColor=#F8CECC;" vertex="1" parent="1">
          <mxGeometry x="680" y="240" width="120" height="60" as="geometry" />
        </mxCell>
        <mxCell id="46TyBXQhw3_iuNuW0S0L-40" style="edgeStyle=orthogonalEdgeStyle;rounded=0;orthogonalLoop=1;jettySize=auto;html=1;exitX=1;exitY=0.5;exitDx=0;exitDy=0;entryX=0;entryY=0.5;entryDx=0;entryDy=0;" edge="1" parent="1" source="46TyBXQhw3_iuNuW0S0L-29" target="46TyBXQhw3_iuNuW0S0L-38">
          <mxGeometry relative="1" as="geometry" />
        </mxCell>
        <mxCell id="46TyBXQhw3_iuNuW0S0L-45" style="edgeStyle=orthogonalEdgeStyle;rounded=0;orthogonalLoop=1;jettySize=auto;html=1;exitX=1;exitY=0.25;exitDx=0;exitDy=0;entryX=0;entryY=0.5;entryDx=0;entryDy=0;" edge="1" parent="1" source="46TyBXQhw3_iuNuW0S0L-29" target="46TyBXQhw3_iuNuW0S0L-37">
          <mxGeometry relative="1" as="geometry">
            <Array as="points">
              <mxPoint x="1170" y="308" />
              <mxPoint x="1170" y="230" />
            </Array>
          </mxGeometry>
        </mxCell>
        <mxCell id="46TyBXQhw3_iuNuW0S0L-29" value="&#xa;Я понимаю. Тем не менее, позвольте мне кратко рассказать о главных преимуществах карты. Вы можете сами решить, насколько это интересно для вас.&#xa;&#xa;" style="rounded=1;whiteSpace=wrap;html=1;fillColor=#FFF2CC;" vertex="1" parent="1">
          <mxGeometry x="840" y="280" width="190" height="110" as="geometry" />
        </mxCell>
        <mxCell id="46TyBXQhw3_iuNuW0S0L-33" style="edgeStyle=orthogonalEdgeStyle;rounded=0;orthogonalLoop=1;jettySize=auto;html=1;exitX=1;exitY=0.5;exitDx=0;exitDy=0;entryX=0;entryY=0.5;entryDx=0;entryDy=0;" edge="1" parent="1" source="46TyBXQhw3_iuNuW0S0L-31" target="46TyBXQhw3_iuNuW0S0L-29">
          <mxGeometry relative="1" as="geometry" />
        </mxCell>
        <mxCell id="46TyBXQhw3_iuNuW0S0L-31" value="Меня не интересуют кредитные карты / У меня уже есть кредитная карта." style="rounded=1;whiteSpace=wrap;html=1;fillColor=#F8CECC;" vertex="1" parent="1">
          <mxGeometry x="680" y="380" width="120" height="60" as="geometry" />
        </mxCell>
        <mxCell id="46TyBXQhw3_iuNuW0S0L-44" style="edgeStyle=orthogonalEdgeStyle;rounded=0;orthogonalLoop=1;jettySize=auto;html=1;exitX=1;exitY=0.5;exitDx=0;exitDy=0;entryX=0.5;entryY=0;entryDx=0;entryDy=0;" edge="1" parent="1" source="46TyBXQhw3_iuNuW0S0L-36" target="46TyBXQhw3_iuNuW0S0L-37">
          <mxGeometry relative="1" as="geometry" />
        </mxCell>
        <mxCell id="46TyBXQhw3_iuNuW0S0L-48" style="edgeStyle=orthogonalEdgeStyle;rounded=0;orthogonalLoop=1;jettySize=auto;html=1;exitX=0.5;exitY=1;exitDx=0;exitDy=0;entryX=0;entryY=0.25;entryDx=0;entryDy=0;" edge="1" parent="1" source="46TyBXQhw3_iuNuW0S0L-36" target="46TyBXQhw3_iuNuW0S0L-38">
          <mxGeometry relative="1" as="geometry">
            <mxPoint x="1235" y="320" as="targetPoint" />
          </mxGeometry>
        </mxCell>
        <mxCell id="46TyBXQhw3_iuNuW0S0L-36" value="&#xa;Как вы думаете, такие условия могут быть полезны для вас? Готовы ли вы оформить заявку на карту прямо сейчас? Это займет всего несколько минут.&#xa;&#xa;" style="rounded=1;whiteSpace=wrap;html=1;fillColor=#FFF2CC;" vertex="1" parent="1">
          <mxGeometry x="1130" y="70" width="210" height="140" as="geometry" />
        </mxCell>
        <mxCell id="46TyBXQhw3_iuNuW0S0L-53" style="edgeStyle=orthogonalEdgeStyle;rounded=0;orthogonalLoop=1;jettySize=auto;html=1;exitX=1;exitY=0.5;exitDx=0;exitDy=0;" edge="1" parent="1" source="46TyBXQhw3_iuNuW0S0L-37" target="46TyBXQhw3_iuNuW0S0L-52">
          <mxGeometry relative="1" as="geometry" />
        </mxCell>
        <mxCell id="46TyBXQhw3_iuNuW0S0L-37" value="&lt;br&gt;Да, давайте оформим.&lt;div&gt;(Положительный ответ)&lt;br&gt;&lt;br&gt;&lt;/div&gt;" style="rounded=1;whiteSpace=wrap;html=1;fillColor=#DAE8FC;" vertex="1" parent="1">
          <mxGeometry x="1420" y="200" width="120" height="60" as="geometry" />
        </mxCell>
        <mxCell id="46TyBXQhw3_iuNuW0S0L-51" style="edgeStyle=orthogonalEdgeStyle;rounded=0;orthogonalLoop=1;jettySize=auto;html=1;exitX=1;exitY=0.5;exitDx=0;exitDy=0;" edge="1" parent="1" source="46TyBXQhw3_iuNuW0S0L-38">
          <mxGeometry relative="1" as="geometry">
            <mxPoint x="1660" y="335" as="targetPoint" />
          </mxGeometry>
        </mxCell>
        <mxCell id="46TyBXQhw3_iuNuW0S0L-38" value="&lt;br&gt;Нет, я еще подумаю&lt;br&gt;(Негативный ответ))" style="rounded=1;whiteSpace=wrap;html=1;fillColor=#F8CECC;" vertex="1" parent="1">
          <mxGeometry x="1420" y="305" width="120" height="60" as="geometry" />
        </mxCell>
        <mxCell id="46TyBXQhw3_iuNuW0S0L-42" style="edgeStyle=orthogonalEdgeStyle;rounded=0;orthogonalLoop=1;jettySize=auto;html=1;exitX=0.5;exitY=1;exitDx=0;exitDy=0;" edge="1" parent="1" source="46TyBXQhw3_iuNuW0S0L-38" target="46TyBXQhw3_iuNuW0S0L-38">
          <mxGeometry relative="1" as="geometry" />
        </mxCell>
        <mxCell id="46TyBXQhw3_iuNuW0S0L-57" style="edgeStyle=orthogonalEdgeStyle;rounded=0;orthogonalLoop=1;jettySize=auto;html=1;exitX=1;exitY=0.5;exitDx=0;exitDy=0;entryX=0;entryY=0.5;entryDx=0;entryDy=0;" edge="1" parent="1" source="46TyBXQhw3_iuNuW0S0L-49" target="46TyBXQhw3_iuNuW0S0L-55">
          <mxGeometry relative="1" as="geometry">
            <Array as="points">
              <mxPoint x="1900" y="338" />
              <mxPoint x="1900" y="265" />
            </Array>
          </mxGeometry>
        </mxCell>
        <mxCell id="46TyBXQhw3_iuNuW0S0L-49" value="Конечно, понимаю, что нужно время на размышления. Я могу отправить вам на почту всю информацию, чтобы вы могли спокойно все обдумать. Какой у вас электронный адрес?" style="rounded=1;whiteSpace=wrap;html=1;fillColor=#FFF2CC;" vertex="1" parent="1">
          <mxGeometry x="1670" y="270" width="160" height="135" as="geometry" />
        </mxCell>
        <mxCell id="46TyBXQhw3_iuNuW0S0L-58" style="edgeStyle=orthogonalEdgeStyle;rounded=0;orthogonalLoop=1;jettySize=auto;html=1;exitX=1;exitY=0.5;exitDx=0;exitDy=0;entryX=0;entryY=0.5;entryDx=0;entryDy=0;" edge="1" parent="1" source="46TyBXQhw3_iuNuW0S0L-52" target="46TyBXQhw3_iuNuW0S0L-55">
          <mxGeometry relative="1" as="geometry" />
        </mxCell>
        <mxCell id="46TyBXQhw3_iuNuW0S0L-52" value="&#xa;Да, давайте оформим.&#xa;&#xa;" style="rounded=1;whiteSpace=wrap;html=1;fillColor=#FFF2CC;" vertex="1" parent="1">
          <mxGeometry x="1700" y="150" width="120" height="60" as="geometry" />
        </mxCell>
        <mxCell id="46TyBXQhw3_iuNuW0S0L-55" value="Спасибо за уделенное время. Если у вас появятся вопросы, вы всегда можете обратиться в наш банк. Хорошего дня и всего доброго!" style="rounded=1;whiteSpace=wrap;html=1;fillColor=#FFF2CC;" vertex="1" parent="1">
          <mxGeometry x="1980" y="210" width="150" height="110" as="geometry" />
        </mxCell>
        <mxCell id="46TyBXQhw3_iuNuW0S0L-60" style="edgeStyle=orthogonalEdgeStyle;rounded=0;orthogonalLoop=1;jettySize=auto;html=1;exitX=0.75;exitY=1;exitDx=0;exitDy=0;entryX=0;entryY=0.667;entryDx=0;entryDy=0;entryPerimeter=0;" edge="1" parent="1" source="46TyBXQhw3_iuNuW0S0L-18" target="46TyBXQhw3_iuNuW0S0L-31">
          <mxGeometry relative="1" as="geometry" />
        </mxCell>
        <mxCell id="46TyBXQhw3_iuNuW0S0L-61" style="edgeStyle=orthogonalEdgeStyle;rounded=0;orthogonalLoop=1;jettySize=auto;html=1;exitX=1;exitY=1;exitDx=0;exitDy=0;entryX=0.006;entryY=0.653;entryDx=0;entryDy=0;entryPerimeter=0;" edge="1" parent="1" source="46TyBXQhw3_iuNuW0S0L-18" target="46TyBXQhw3_iuNuW0S0L-28">
          <mxGeometry relative="1" as="geometry">
            <Array as="points">
              <mxPoint x="590" y="280" />
              <mxPoint x="635" y="280" />
            </Array>
          </mxGeometry>
        </mxCell>
      </root>
    </mxGraphModel>
  </diagram>
</mxfile>
